<svg xmlns="http://www.w3.org/2000/svg" width="600" height="180" viewBox="0 0 150 44.995" stroke="#EEE" stroke-width=".1">
  <path d="M27.762 44.672H.323V.323h5.87V39.41h21.57z" fill="#EEE"/>
  <path d="M90.434.323L73.2 44.672h-6.05L49.896.323h6.262L70.165 38.35 84.172.323z" fill="none" stroke="#FFF" stroke-width=".3"/>
  <g fill="none">
    <path d="M149.537 44.672h-6.353l-4.175-11.83q-1.12-3.146-3.72-5.143-2.602-1.997-6-1.997h-10.86V44.67h-5.87V.323h19.634q5.143 0 8.4.998 3.267.998 5.324 4.205 2.057 3.207 2.057 7.23 0 4.598-2.662 7.684-2.662 3.086-7.3 4.024v.12q4.63 1.482 7.05 8.017zm-31.1-24.232h13.1q5.476 0 7.926-1.724 2.48-1.724 2.48-5.96 0-7.563-9.5-7.563h-14.007zm-56.4 24.232L44.794.323h-6.05L21.5 44.672h6.262L41.768 6.645l14.007 38.027z"/>
    <path d="M118.83 44.672L101.587.323h-6.05l-17.244 44.35h6.262L98.562 6.645l14.007 38.027z"/>
  </g>
</svg>
